<svg xmlns="http://www.w3.org/2000/svg" viewBox="0 0 100 100">
  <rect width="100" height="100" rx="10" fill="#f5f5f5"/>
  
  <!-- Grid of product iterations -->
  <rect x="5" y="5" width="42" height="42" rx="3" fill="white" stroke="#ddd" stroke-width="1"/>
  <rect x="53" y="5" width="42" height="42" rx="3" fill="white" stroke="#ddd" stroke-width="1"/>
  <rect x="5" y="53" width="42" height="42" rx="3" fill="white" stroke="#ddd" stroke-width="1"/>
  <rect x="53" y="53" width="42" height="42" rx="3" fill="white" stroke="#ddd" stroke-width="1"/>
  
  <!-- Product design 1 -->
  <circle cx="26" cy="26" r="15" fill="#e0e0e0" stroke="#999" stroke-width="1"/>
  <rect x="21" y="21" width="10" height="10" rx="1" fill="#fff" stroke="#999" stroke-width="1"/>
  
  <!-- Product design 2 -->
  <circle cx="74" cy="26" r="15" fill="#e0e0e0" stroke="#999" stroke-width="1"/>
  <rect x="69" y="21" width="10" height="10" rx="3" fill="#fff" stroke="#999" stroke-width="1"/>
  
  <!-- Product design 3 -->
  <circle cx="26" cy="74" r="15" fill="#e0e0e0" stroke="#999" stroke-width="1"/>
  <polygon points="26,64 31,74 21,74" fill="#fff" stroke="#999" stroke-width="1"/>
  
  <!-- Product design 4 -->
  <circle cx="74" cy="74" r="15" fill="#e0e0e0" stroke="#999" stroke-width="1"/>
  <ellipse cx="74" cy="74" rx="7" ry="10" fill="#fff" stroke="#999" stroke-width="1"/>
  
  <!-- Version labels -->
  <text x="8" y="12" font-family="Arial" font-size="4" fill="#666">V1</text>
  <text x="56" y="12" font-family="Arial" font-size="4" fill="#666">V2</text>
  <text x="8" y="60" font-family="Arial" font-size="4" fill="#666">V3</text>
  <text x="56" y="60" font-family="Arial" font-size="4" fill="#666">V4</text>
</svg>