<svg xmlns="http://www.w3.org/2000/svg" viewBox="0 0 100 100">
  <rect width="100" height="100" rx="10" fill="#f5f5f5"/>
  <rect x="10" y="10" width="80" height="80" rx="5" fill="white" stroke="#ddd" stroke-width="2"/>
  
  <!-- Document header -->
  <rect x="15" y="15" width="50" height="6" rx="2" fill="#333"/>
  
  <!-- Text content -->
  <rect x="15" y="25" width="70" height="3" rx="1" fill="#666"/>
  <rect x="15" y="30" width="65" height="3" rx="1" fill="#666"/>
  <rect x="15" y="35" width="70" height="3" rx="1" fill="#666"/>
  <rect x="15" y="40" width="60" height="3" rx="1" fill="#666"/>
  
  <!-- Product sketch -->
  <rect x="15" y="50" width="30" height="30" rx="2" fill="#e0e0e0" stroke="#999" stroke-width="1"/>
  <circle cx="30" cy="65" r="10" fill="#fff" stroke="#999" stroke-width="1"/>
  <rect x="25" y="60" width="10" height="10" rx="1" fill="#fff" stroke="#999" stroke-width="1"/>
  
  <!-- Design notes -->
  <rect x="55" y="50" width="30" height="3" rx="1" fill="#333"/>
  <rect x="55" y="55" width="25" height="2" rx="1" fill="#666"/>
  <rect x="55" y="60" width="28" height="2" rx="1" fill="#666"/>
  <rect x="55" y="65" width="20" height="2" rx="1" fill="#666"/>
  
  <!-- Color palette -->
  <circle cx="60" cy="75" r="3" fill="#ff6b6b"/>
  <circle cx="68" cy="75" r="3" fill="#feca57"/>
  <circle cx="76" cy="75" r="3" fill="#1dd1a1"/>
</svg>